{"title":"Afterlife.S02.DVDRip.XViD-GTV (Atilla82)","uid":4987094,"size":2957682767,"categoryP":"video","categoryS":"tv_shows","magnet":"?xt=urn:btih:bb24f5dcdba63990187f904dbfe63c749a743e32&amp;dn=Afterlife.S02.DVDRip.XViD-GTV+%28Atilla82%29&amp;tr=udp%3A%2F%2Ftracker.openbittorrent.com%3A80&amp;tr=udp%3A%2F%2Fopen.demonii.com%3A1337&amp;tr=udp%3A%2F%2Ftracker.coppersurfer.tk%3A6969&amp;tr=udp%3A%2F%2Fexodus.desync.com%3A6969","seeders":1,"leechers":1,"uploader":"Atilla82","files":-1,"time":1246795101,"description":"University lecturer Robert Bridge (Andrew Lincoln) becomes involved in a series of supernatural events surrounding medium Alison Mundy (Lesley Sharp) in this chilling TV series. \n\n\n\n\nGeneral\nFormat                           : AVI\nOverall bit rate                 : 1 062 Kbps\nWriting application              : VirtualDubMod 1.5.10.2 (build 2540/release)\nWriting library                  : VirtualDubMod build 2540/release\n\nVideo\nFormat                           : MPEG-4 Visual\nFormat profile                   : Streaming Video@L1\nFormat settings, BVOP            : Yes\nFormat settings, Matrix          : Default (H.263)\nMuxing mode                      : Packed bitstream\nCodec ID                         : XVID\nBit rate                         : 945 Kbps\nWidth                            : 640 pixels\nHeight                           : 352 pixels\nDisplay aspect ratio             : 16/9\nFrame rate                       : 25.000 fps\nResolution                       : 24 bits\nColorimetry                      : 4:2:0\nScan type                        : Progressive\nBits/(Pixel*Frame)               : 0.168\nStream size                      : 311 MiB (89%)\nWriting library                  : XviD 1.1.0 (UTC 2005-11-22)\n\nAudio\nFormat                           : MPEG Audio\nFormat version                   : Version 1\nFormat profile                   : Layer 3\nCodec ID                         : 55\nCodec ID/Hint                    : MP3\nBit rate mode                    : Variable\nBit rate                         : 104 Kbps\nMinimum bit rate                 : 32.0 Kbps\nChannel(s)                       : 2 channels\nSampling rate                    : 48.0 KHz\nResolution                       : 16 bits\nStream size                      : 34.3 MiB (10%)\nAlignment                        : Aligned on interleaves\nInterleave, duration             : 24 ms (0.60 video frame)\nInterleave, preload duration     : 276 ms\nWriting library                  : LAME3.97b\nEncoding settings                : -m j -V 5 -q 3 -lowpass 16 --vbr-new -b 32\n\n\n\nSubtitles: english.srt","torrent":{"xt":"urn:btih:bb24f5dcdba63990187f904dbfe63c749a743e32","amp;dn":"Afterlife.S02.DVDRip.XViD-GTV+%28Atilla82%29","amp;tr":["udp%3A%2F%2Ftracker.openbittorrent.com%3A80","udp%3A%2F%2Fopen.demonii.com%3A1337","udp%3A%2F%2Ftracker.coppersurfer.tk%3A6969","udp%3A%2F%2Fexodus.desync.com%3A6969"],"infoHash":"bb24f5dcdba63990187f904dbfe63c749a743e32","infoHashBuffer":{"type":"Buffer","data":[187,36,245,220,219,166,57,144,24,127,144,77,191,230,60,116,154,116,62,50]},"announce":[],"urlList":[]}}